<?xml version="1.0" standalone="no"?>
<!DOCTYPE svg PUBLIC "-//W3C//DTD SVG 20010904//EN"
 "http://www.w3.org/TR/2001/REC-SVG-20010904/DTD/svg10.dtd">
<svg version="1.0" xmlns="http://www.w3.org/2000/svg"
 width="678.000000pt" height="678.000000pt" viewBox="0 0 678.000000 678.000000"
 preserveAspectRatio="xMidYMid meet">
<metadata>
Created by potrace 1.11, written by Peter Selinger 2001-2013
</metadata>
<g transform="translate(0.000000,678.000000) scale(0.100000,-0.100000)"
fill="#000000" stroke="none">
<path d="M3129 6770 c-1209 -102 -2261 -825 -2785 -1914 -444 -923 -444 -2009
0 -2932 460 -957 1347 -1649 2376 -1854 266 -53 381 -64 675 -64 294 0 409 11
675 64 1168 233 2142 1090 2527 2225 124 365 177 695 177 1095 0 552 -107
1013 -349 1505 -172 348 -368 620 -649 900 -268 266 -540 461 -876 629 -351
174 -700 279 -1100 331 -148 19 -522 27 -671 15z m-392 -1950 c181 -43 275
-105 492 -324 l164 -166 168 165 c183 180 273 246 397 293 115 44 184 56 322
55 152 -1 244 -23 375 -87 197 -98 373 -295 466 -523 56 -137 74 -238 73 -423
0 -134 -4 -169 -27 -259 -32 -125 -97 -263 -170 -360 -53 -70 -1593 -1682
-1605 -1680 -16 2 -1567 1631 -1613 1694 -125 172 -189 381 -189 620 0 291 93
531 287 736 231 244 537 336 860 259z"/>
</g>
</svg>
